<?xml version="1.0" encoding="UTF-8" standalone="no"?>
<!-- Created with Inkscape (http://www.inkscape.org/) -->

<svg
   xmlns:dc="http://purl.org/dc/elements/1.1/"
   xmlns:cc="http://creativecommons.org/ns#"
   xmlns:rdf="http://www.w3.org/1999/02/22-rdf-syntax-ns#"
   xmlns:svg="http://www.w3.org/2000/svg"
   xmlns="http://www.w3.org/2000/svg"
   xmlns:sodipodi="http://sodipodi.sourceforge.net/DTD/sodipodi-0.dtd"
   xmlns:inkscape="http://www.inkscape.org/namespaces/inkscape"
   width="744.09448819"
   height="1052.3622047"
   id="svg3237"
   version="1.1"
   inkscape:version="0.48.4 r9939"
   sodipodi:docname="New document 2">
  <defs
     id="defs3239" />
  <sodipodi:namedview
     id="base"
     pagecolor="#ffffff"
     bordercolor="#666666"
     borderopacity="1.0"
     inkscape:pageopacity="0.0"
     inkscape:pageshadow="2"
     inkscape:zoom="0.98994949"
     inkscape:cx="388.73716"
     inkscape:cy="542.94658"
     inkscape:document-units="px"
     inkscape:current-layer="layer1"
     showgrid="false"
     inkscape:window-width="1244"
     inkscape:window-height="802"
     inkscape:window-x="26"
     inkscape:window-y="26"
     inkscape:window-maximized="0" />
  <metadata
     id="metadata3242">
    <rdf:RDF>
      <cc:Work
         rdf:about="">
        <dc:format>image/svg+xml</dc:format>
        <dc:type
           rdf:resource="http://purl.org/dc/dcmitype/StillImage" />
        <dc:title></dc:title>
      </cc:Work>
    </rdf:RDF>
  </metadata>
  <g
     inkscape:label="Layer 1"
     inkscape:groupmode="layer"
     id="layer1">
    <circle
       transform="translate(65.61799,271.11405)"
       d="m 149.043,312.742 c 0,2.78518 -2.25783,5.043 -5.043,5.043 -2.78517,0 -5.043,-2.25782 -5.043,-5.043 0,-2.78517 2.25783,-5.043 5.043,-5.043 2.78517,0 5.043,2.25783 5.043,5.043 z"
       sodipodi:ry="5.0430002"
       sodipodi:rx="5.0430002"
       sodipodi:cy="312.742"
       sodipodi:cx="144"
       cx="144"
       cy="312.742"
       r="5.0430002"
       id="circle4960" />
    <circle
       transform="translate(41.868068,269.23244)"
       d="m 149.043,312.742 c 0,2.78518 -2.25783,5.043 -5.043,5.043 -2.78517,0 -5.043,-2.25782 -5.043,-5.043 0,-2.78517 2.25783,-5.043 5.043,-5.043 2.78517,0 5.043,2.25783 5.043,5.043 z"
       sodipodi:ry="5.0430002"
       sodipodi:rx="5.0430002"
       sodipodi:cy="312.742"
       sodipodi:cx="144"
       cx="144"
       cy="312.742"
       r="5.0430002"
       id="circle4960-3" />
    <circle
       transform="translate(55.000051,294.48625)"
       d="m 149.043,312.742 c 0,2.78518 -2.25783,5.043 -5.043,5.043 -2.78517,0 -5.043,-2.25782 -5.043,-5.043 0,-2.78517 2.25783,-5.043 5.043,-5.043 2.78517,0 5.043,2.25783 5.043,5.043 z"
       sodipodi:ry="5.0430002"
       sodipodi:rx="5.0430002"
       sodipodi:cy="312.742"
       sodipodi:cx="144"
       cx="144"
       cy="312.742"
       r="5.0430002"
       id="circle4960-19" />
    <rect
       style="fill:#e68b88;stroke:#000000;stroke-width:4;stroke-linejoin:round;stroke-miterlimit:10"
       x="98.661987"
       y="305.03806"
       stroke-miterlimit="10"
       width="276.724"
       height="174.399"
       id="rect4936" />
    <rect
       style="fill:#77c093;stroke:#000000;stroke-width:4;stroke-linejoin:round;stroke-miterlimit:10"
       x="99.833992"
       y="475.89905"
       stroke-miterlimit="10"
       width="137.069"
       height="73.537003"
       id="rect4938" />
    <rect
       style="fill:#ffe791;stroke:#000000;stroke-width:4;stroke-linejoin:round;stroke-miterlimit:10"
       x="237.72998"
       y="475.89905"
       stroke-miterlimit="10"
       width="139.655"
       height="149.01601"
       id="rect4940" />
    <rect
       style="fill:#72b0d3;stroke:#000000;stroke-width:4;stroke-linejoin:round;stroke-miterlimit:10"
       x="99.247993"
       y="553.89905"
       stroke-miterlimit="10"
       width="69.828003"
       height="71.43"
       id="rect4942" />
    <rect
       style="fill:#b4b6db;stroke:#000000;stroke-width:4;stroke-linejoin:round;stroke-miterlimit:10"
       x="168.24698"
       y="553.89905"
       stroke-miterlimit="10"
       width="69.828003"
       height="71.43"
       id="rect4944" />
    <rect
       style="fill:none;stroke:#000000;stroke-width:10;stroke-miterlimit:10"
       x="98.67099"
       y="304.42505"
       stroke-miterlimit="10"
       width="554.94702"
       height="320.689"
       id="rect4946" />
    <line
       style="fill:none;stroke:#000000;stroke-width:8;stroke-miterlimit:10"
       stroke-miterlimit="10"
       x1="376.89401"
       y1="303.35605"
       x2="376.89401"
       y2="626.18408"
       id="line4948" />
    <line
       style="fill:none;stroke:#000000;stroke-width:8;stroke-miterlimit:10"
       stroke-miterlimit="10"
       x1="375.60101"
       y1="444.61404"
       x2="654.91199"
       y2="444.61404"
       id="line4950" />
    <line
       style="fill:none;stroke:#000000;stroke-width:8;stroke-miterlimit:10"
       stroke-miterlimit="10"
       x1="101.46399"
       y1="478.23505"
       x2="378.18701"
       y2="478.23505"
       id="line4952" />
    <line
       style="fill:none;stroke:#000000;stroke-width:8;stroke-miterlimit:10"
       stroke-miterlimit="10"
       x1="236.35999"
       y1="476.64905"
       x2="236.35999"
       y2="624.06305"
       id="line4954" />
    <line
       style="fill:none;stroke:#000000;stroke-width:8;stroke-miterlimit:10"
       stroke-miterlimit="10"
       x1="101.46399"
       y1="553.23505"
       x2="235.94598"
       y2="553.23505"
       id="line4956" />
    <line
       style="fill:none;stroke:#000000;stroke-width:8;stroke-miterlimit:10"
       stroke-miterlimit="10"
       x1="169.29099"
       y1="553.23505"
       x2="169.29099"
       y2="623.06305"
       id="line4958" />
    <circle
       transform="translate(-28.84261,255.0903)"
       d="m 149.043,312.742 c 0,2.78518 -2.25783,5.043 -5.043,5.043 -2.78517,0 -5.043,-2.25782 -5.043,-5.043 0,-2.78517 2.25783,-5.043 5.043,-5.043 2.78517,0 5.043,2.25783 5.043,5.043 z"
       sodipodi:ry="5.0430002"
       sodipodi:rx="5.0430002"
       sodipodi:cy="312.742"
       sodipodi:cx="144"
       cx="144"
       cy="312.742"
       r="5.0430002"
       id="circle4960-8" />
    <circle
       transform="translate(12.405587,270.79408)"
       d="m 149.043,312.742 c 0,2.78518 -2.25783,5.043 -5.043,5.043 -2.78517,0 -5.043,-2.25782 -5.043,-5.043 0,-2.78517 2.25783,-5.043 5.043,-5.043 2.78517,0 5.043,2.25783 5.043,5.043 z"
       sodipodi:ry="5.0430002"
       sodipodi:rx="5.0430002"
       sodipodi:cy="312.742"
       sodipodi:cx="144"
       cx="144"
       cy="312.742"
       r="5.0430002"
       id="circle4960-6" />
    <circle
       transform="translate(-17.73093,282.36442)"
       d="m 149.043,312.742 c 0,2.78518 -2.25783,5.043 -5.043,5.043 -2.78517,0 -5.043,-2.25782 -5.043,-5.043 0,-2.78517 2.25783,-5.043 5.043,-5.043 2.78517,0 5.043,2.25783 5.043,5.043 z"
       sodipodi:ry="5.0430002"
       sodipodi:rx="5.0430002"
       sodipodi:cy="312.742"
       sodipodi:cx="144"
       cx="144"
       cy="312.742"
       r="5.0430002"
       id="circle4960-5" />
    <path
       style="fill:none"
       d="m 382.31112,375.21963 0,-65.35715 132.85714,0 132.85714,0 0,65.35715 0,65.35714 -132.85714,0 -132.85714,0 0,-65.35714 z m 213.11796,36.01958 c 3.94922,-3.10646 1.64322,-9.23387 -3.4751,-9.23387 -3.22359,0 -5.35715,2.07919 -5.35715,5.22062 0,4.96621 4.83042,7.16109 8.83225,4.01325 l 0,0 z M 459.02767,384.76403 c 2.3018,-1.04877 3.47943,-4.29307 2.49663,-6.87802 -0.93205,-2.45148 -1.8352,-3.00165 -4.92747,-3.00165 -3.11173,0 -3.99472,0.54833 -4.95648,3.07794 -0.96608,2.54101 -0.30536,5.2072 1.6256,6.5597 1.80695,1.26564 3.37095,1.33133 5.76172,0.24203 l 0,0 z m 31.72019,-41.35794 c 3.4374,-3.20243 0.87443,-9.25789 -3.91839,-9.25789 -3.15401,0 -5.23264,2.12808 -5.23264,5.35714 0,4.83106 5.5933,7.21527 9.15103,3.90075 z"
       id="path10018"
       inkscape:connector-curvature="0" />
    <rect
       style="fill:none;stroke:none"
       id="rect10788"
       width="45"
       height="28.571428"
       x="509.28571"
       y="669.14795" />
    <rect
       style="fill:none;stroke:none"
       id="rect12248"
       width="159.28572"
       height="107.14286"
       x="389.28571"
       y="665.57648" />
    <path
       style="fill:#ff7f2a;stroke:none"
       d="m 381.04974,534.43291 0,-85.61043 133.71894,0 133.71895,0 0,85.61043 0,85.61043 -133.71895,0 -133.71894,0 0,-85.61043 z"
       id="path12543"
       inkscape:connector-curvature="0" />
    <path
       style="fill:#ff0000;stroke:#d45500;stroke-width:1.61725414;stroke-linecap:round;stroke-linejoin:miter;stroke-miterlimit:4;stroke-opacity:1;stroke-dasharray:6.46901671, 3.23450836, 1.61725418, 3.23450836;stroke-dashoffset:0"
       d="m 381.15271,375.15907 0,-65.40738 133.59268,0 133.59267,0 0,65.40738 0,65.40737 -133.59267,0 -133.59268,0 0,-65.40737 z"
       id="path12905"
       inkscape:connector-curvature="0" />
    <path
       sodipodi:type="star"
       style="fill:#ffff00;stroke:#000000;stroke-width:3.5999999;stroke-linecap:round;stroke-linejoin:miter;stroke-miterlimit:4;stroke-opacity:1;stroke-dasharray:none;stroke-dashoffset:0"
       id="path4321"
       sodipodi:sides="5"
       sodipodi:cx="422.85715"
       sodipodi:cy="333.79074"
       sodipodi:r1="16.162441"
       sodipodi:r2="8.0812206"
       sodipodi:arg1="-0.78539816"
       sodipodi:arg2="-0.15707963"
       inkscape:flatsided="false"
       inkscape:rounded="0"
       inkscape:randomized="0"
       d="m 434.28572,322.36217 -3.44685,10.16439 6.41912,8.60178 -10.73205,-0.13718 -6.19716,8.76304 -3.18592,-10.24917 -10.24917,-3.18593 8.76304,-6.19716 -0.13718,-10.73204 8.60178,6.41911 z"
       inkscape:transform-center-x="0.48554135"
       inkscape:transform-center-y="0.4855417"
       transform="matrix(0.62145121,0,0,0.62145121,153.34773,120.22327)" />
    <path
       sodipodi:type="star"
       style="fill:#ffff00;stroke:#000000;stroke-width:3.5999999;stroke-linecap:round;stroke-linejoin:miter;stroke-miterlimit:4;stroke-opacity:1;stroke-dasharray:none;stroke-dashoffset:0"
       id="path4321-8"
       sodipodi:sides="5"
       sodipodi:cx="422.85715"
       sodipodi:cy="333.79074"
       sodipodi:r1="16.162441"
       sodipodi:r2="8.0812206"
       sodipodi:arg1="-0.78539816"
       sodipodi:arg2="-0.15707963"
       inkscape:flatsided="false"
       inkscape:rounded="0"
       inkscape:randomized="0"
       d="m 434.28572,322.36217 -3.44685,10.16439 6.41912,8.60178 -10.73205,-0.13718 -6.19716,8.76304 -3.18592,-10.24917 -10.24917,-3.18593 8.76304,-6.19716 -0.13718,-10.73204 8.60178,6.41911 z"
       inkscape:transform-center-x="0.48554135"
       inkscape:transform-center-y="0.4855417"
       transform="matrix(0.62145121,0,0,0.62145121,274.84331,125.87056)" />
    <path
       sodipodi:type="star"
       style="fill:#ffff00;stroke:#000000;stroke-width:3.5999999;stroke-linecap:round;stroke-linejoin:miter;stroke-miterlimit:4;stroke-opacity:1;stroke-dasharray:none;stroke-dashoffset:0"
       id="path4321-2"
       sodipodi:sides="5"
       sodipodi:cx="422.85715"
       sodipodi:cy="333.79074"
       sodipodi:r1="16.162441"
       sodipodi:r2="8.0812206"
       sodipodi:arg1="-0.78539816"
       sodipodi:arg2="-0.15707963"
       inkscape:flatsided="false"
       inkscape:rounded="0"
       inkscape:randomized="0"
       d="m 434.28572,322.36217 -3.44685,10.16439 6.41912,8.60178 -10.73205,-0.13718 -6.19716,8.76304 -3.18592,-10.24917 -10.24917,-3.18593 8.76304,-6.19716 -0.13718,-10.73204 8.60178,6.41911 z"
       inkscape:transform-center-x="0.48554135"
       inkscape:transform-center-y="0.4855417"
       transform="matrix(0.62145121,0,0,0.62145121,211.98617,133.01341)" />
    <path
       sodipodi:type="star"
       style="fill:#ffff00;stroke:#000000;stroke-width:3.5999999;stroke-linecap:round;stroke-linejoin:miter;stroke-miterlimit:4;stroke-opacity:1;stroke-dasharray:none;stroke-dashoffset:0"
       id="path4321-4"
       sodipodi:sides="5"
       sodipodi:cx="422.85715"
       sodipodi:cy="333.79074"
       sodipodi:r1="16.162441"
       sodipodi:r2="8.0812206"
       sodipodi:arg1="-0.78539816"
       sodipodi:arg2="-0.15707963"
       inkscape:flatsided="false"
       inkscape:rounded="0"
       inkscape:randomized="0"
       d="m 434.28572,322.36217 -3.44685,10.16439 6.41912,8.60178 -10.73205,-0.13718 -6.19716,8.76304 -3.18592,-10.24917 -10.24917,-3.18593 8.76304,-6.19716 -0.13718,-10.73204 8.60178,6.41911 z"
       inkscape:transform-center-x="0.48554135"
       inkscape:transform-center-y="0.4855417"
       transform="matrix(0.62145121,0,0,0.62145121,144.84332,185.87055)" />
    <path
       sodipodi:type="star"
       style="fill:#ffff00;stroke:#000000;stroke-width:3.5999999;stroke-linecap:round;stroke-linejoin:miter;stroke-miterlimit:4;stroke-opacity:1;stroke-dasharray:none;stroke-dashoffset:0"
       id="path4321-5"
       sodipodi:sides="5"
       sodipodi:cx="422.85715"
       sodipodi:cy="333.79074"
       sodipodi:r1="16.162441"
       sodipodi:r2="8.0812206"
       sodipodi:arg1="-0.78539816"
       sodipodi:arg2="-0.15707963"
       inkscape:flatsided="false"
       inkscape:rounded="0"
       inkscape:randomized="0"
       d="m 434.28572,322.36217 -3.44685,10.16439 6.41912,8.60178 -10.73205,-0.13718 -6.19716,8.76304 -3.18592,-10.24917 -10.24917,-3.18593 8.76304,-6.19716 -0.13718,-10.73204 8.60178,6.41911 z"
       inkscape:transform-center-x="0.48554135"
       inkscape:transform-center-y="0.4855417"
       transform="matrix(0.62145121,0,0,0.62145121,216.82157,213.70667)" />
    <path
       sodipodi:type="star"
       style="fill:#ffff00;stroke:#000000;stroke-width:3.5999999;stroke-linecap:round;stroke-linejoin:miter;stroke-miterlimit:4;stroke-opacity:1;stroke-dasharray:none;stroke-dashoffset:0"
       id="path4321-51"
       sodipodi:sides="5"
       sodipodi:cx="422.85715"
       sodipodi:cy="333.79074"
       sodipodi:r1="16.162441"
       sodipodi:r2="8.0812206"
       sodipodi:arg1="-0.78539816"
       sodipodi:arg2="-0.15707963"
       inkscape:flatsided="false"
       inkscape:rounded="0"
       inkscape:randomized="0"
       d="m 434.28572,322.36217 -3.44685,10.16439 6.41912,8.60178 -10.73205,-0.13718 -6.19716,8.76304 -3.18592,-10.24917 -10.24917,-3.18593 8.76304,-6.19716 -0.13718,-10.73204 8.60178,6.41911 z"
       inkscape:transform-center-x="0.48554135"
       inkscape:transform-center-y="0.4855417"
       transform="matrix(0.62145121,0,0,0.62145121,319.12903,165.87055)" />
    <path
       sodipodi:type="star"
       style="fill:#ffff00;stroke:#000000;stroke-width:3.5999999;stroke-linecap:round;stroke-linejoin:miter;stroke-miterlimit:4;stroke-opacity:1;stroke-dasharray:none;stroke-dashoffset:0"
       id="path4321-7"
       sodipodi:sides="5"
       sodipodi:cx="422.85715"
       sodipodi:cy="333.79074"
       sodipodi:r1="16.162441"
       sodipodi:r2="8.0812206"
       sodipodi:arg1="-0.78539816"
       sodipodi:arg2="-0.15707963"
       inkscape:flatsided="false"
       inkscape:rounded="0"
       inkscape:randomized="0"
       d="m 434.28572,322.36217 -3.44685,10.16439 6.41912,8.60178 -10.73205,-0.13718 -6.19716,8.76304 -3.18592,-10.24917 -10.24917,-3.18593 8.76304,-6.19716 -0.13718,-10.73204 8.60178,6.41911 z"
       inkscape:transform-center-x="0.48554135"
       inkscape:transform-center-y="0.4855417"
       transform="matrix(0.62145121,0,0,0.62145121,353.41474,201.58483)" />
    <path
       sodipodi:type="star"
       style="fill:#ffff00;stroke:#000000;stroke-width:3.5999999;stroke-linecap:round;stroke-linejoin:miter;stroke-miterlimit:4;stroke-opacity:1;stroke-dasharray:none;stroke-dashoffset:0"
       id="path4321-1"
       sodipodi:sides="5"
       sodipodi:cx="422.85715"
       sodipodi:cy="333.79074"
       sodipodi:r1="16.162441"
       sodipodi:r2="8.0812206"
       sodipodi:arg1="-0.78539816"
       sodipodi:arg2="-0.15707963"
       inkscape:flatsided="false"
       inkscape:rounded="0"
       inkscape:randomized="0"
       d="m 434.28572,322.36217 -3.44685,10.16439 6.41912,8.60178 -10.73205,-0.13718 -6.19716,8.76304 -3.18592,-10.24917 -10.24917,-3.18593 8.76304,-6.19716 -0.13718,-10.73204 8.60178,6.41911 z"
       inkscape:transform-center-x="0.48554135"
       inkscape:transform-center-y="0.4855417"
       transform="matrix(0.62145121,0,0,0.62145121,283.41474,213.01341)" />
    <path
       sodipodi:type="star"
       style="fill:#ffff00;stroke:#000000;stroke-width:3.5999999;stroke-linecap:round;stroke-linejoin:miter;stroke-miterlimit:4;stroke-opacity:1;stroke-dasharray:none;stroke-dashoffset:0"
       id="path4321-15"
       sodipodi:sides="5"
       sodipodi:cx="422.85715"
       sodipodi:cy="333.79074"
       sodipodi:r1="16.162441"
       sodipodi:r2="8.0812206"
       sodipodi:arg1="-0.78539816"
       sodipodi:arg2="-0.15707963"
       inkscape:flatsided="false"
       inkscape:rounded="0"
       inkscape:randomized="0"
       d="m 434.28572,322.36217 -3.44685,10.16439 6.41912,8.60178 -10.73205,-0.13718 -6.19716,8.76304 -3.18592,-10.24917 -10.24917,-3.18593 8.76304,-6.19716 -0.13718,-10.73204 8.60178,6.41911 z"
       inkscape:transform-center-x="0.48554135"
       inkscape:transform-center-y="0.4855417"
       transform="matrix(0.62145121,0,0,0.62145121,343.41474,118.72769)" />
    <path
       sodipodi:type="star"
       style="fill:#ffffff;stroke:#000000;stroke-width:3.5999999;stroke-linecap:round;stroke-linejoin:miter;stroke-miterlimit:4;stroke-opacity:1;stroke-dasharray:none;stroke-dashoffset:0"
       id="path4443"
       sodipodi:sides="5"
       sodipodi:cx="462.85715"
       sodipodi:cy="348.07648"
       sodipodi:r1="180.56599"
       sodipodi:r2="90.283005"
       sodipodi:arg1="3.0623936"
       sodipodi:arg2="3.6907121"
       inkscape:flatsided="false"
       inkscape:rounded="0"
       inkscape:randomized="0"
       d="m 282.85716,362.36219 102.98999,-61.40769 7.80042,-119.65366 90.22785,78.97328 116.20785,-29.55637 -47.22612,110.21587 64.01998,101.38681 -119.41519,-10.85613 -76.64133,92.21687 -26.57653,-116.92532 z"
       inkscape:transform-center-x="2.6439936"
       inkscape:transform-center-y="0.89854006"
       transform="matrix(0.20354079,0,0,0.20354079,427.03681,304.23861)" />
    <path
       style="fill:#ffffff;stroke:#0000ff;stroke-width:7.50000000000000000;stroke-linecap:butt;stroke-linejoin:miter;stroke-opacity:1;stroke-miterlimit:4;stroke-dasharray:45, 7.50000000000000000;stroke-dashoffset:0"
       d="M 132.85714,582.36218 521.42857,378.07647"
       id="path4445"
       inkscape:connector-curvature="0" />
  </g>
</svg>
