<?xml version="1.0" encoding="utf-8"?>
<!-- Generator: Adobe Illustrator 15.1.0, SVG Export Plug-In . SVG Version: 6.00 Build 0)  -->
<!DOCTYPE svg PUBLIC "-//W3C//DTD SVG 1.1//EN" "http://www.w3.org/Graphics/SVG/1.1/DTD/svg11.dtd">
<svg version="1.1" id="Layer_1" xmlns="http://www.w3.org/2000/svg" xmlns:xlink="http://www.w3.org/1999/xlink" x="0px" y="0px"
	 width="612px" height="792px" viewBox="0 0 612 792" enable-background="new 0 0 612 792" xml:space="preserve">
<g id="XMLID_1_">
	<g>
		<polygon fill="#F0EEE3" points="414.28,668.12 414.28,485.12 414.28,451.5 414.33,451.5 599,451.5 599,727.26 414.28,727.26 
			414.28,724.33 		"/>
		<polygon fill="#F0EEE3" points="599,311.31 599,451.5 414.33,451.5 414.28,451.5 414.28,391.12 414.28,311.31 		"/>
		<polygon fill="#F0EEE3" points="414.28,724.33 414.28,727.26 292.74,727.26 292.74,724.34 292.74,668.12 414.28,668.12 		"/>
		<polygon fill="#F0EEE3" points="292.74,583.12 292.74,485.12 413.67,485.12 414.28,485.12 414.28,668.12 292.74,668.12 
			292.74,632.12 		"/>
		<path fill="#AFD3E0" d="M292.74,485.12h-73.93C201.95,461.44,174.28,446,143,446s-58.95,15.44-75.81,39.12H19.85h-2.8v-94h0.8
			h393.82h2.61v60.38v33.62h-0.61H292.74z"/>
		<polygon fill="#F0EEE3" points="414.28,311.31 414.28,391.12 411.67,391.12 17.85,391.12 17.05,391.12 17.05,311.31 		"/>
		<polygon fill="#F0EEE3" points="292.74,668.12 292.74,724.34 292.74,727.26 154.74,727.26 154.74,724.33 154.74,632.12 
			221.74,632.12 292.74,632.12 		"/>
		<path fill="#AFD3E0" d="M292.74,583.12v49h-71v-1.78V588.5c1.11-1.75,2.16-3.55,3.14-5.38H292.74z"/>
		<path fill="#AFD3E0" d="M221.74,489.5c-0.93-1.49-1.91-2.95-2.93-4.38h73.93v98h-67.86C231.98,569.99,236,554.97,236,539
			C236,520.81,230.78,503.83,221.74,489.5z"/>
		<path fill="#AFD3E0" d="M236,539c0,15.97-4.02,30.99-11.12,44.12h-3.14V489.5C230.78,503.83,236,520.81,236,539z"/>
		<path fill="#AFD3E0" d="M221.74,630.34v1.78h-67v-0.86c28.23-3.55,52.52-19.76,67-42.76V630.34z"/>
		<path fill="#AFD3E0" d="M221.74,583.12v5.38c-14.48,23-38.77,39.21-67,42.76v-48.14h1.59H221.74z"/>
		<path fill="#AFD3E0" d="M221.74,489.5v93.62h-65.41h-1.59v-23v-75h64.07C219.83,486.55,220.81,488.01,221.74,489.5z"/>
		<path fill="#AFD3E0" d="M154.74,485.12H67.19C84.05,461.44,111.72,446,143,446s58.95,15.44,75.81,39.12H154.74z"/>
		<polygon fill="#F0EEE3" points="154.74,724.33 154.74,727.26 17.05,727.26 17.05,632.12 19.85,632.12 87.67,632.12 154.74,632.12 
					"/>
		<path fill="#AFD3E0" d="M154.74,631.26v0.86H87.67v-2.17v-16.2C103.13,625.22,122.27,632,143,632
			C146.98,632,150.9,631.75,154.74,631.26z"/>
		<path fill="#AFD3E0" d="M154.74,583.12v48.14c-3.84,0.49-7.76,0.74-11.74,0.74c-20.73,0-39.87-6.78-55.33-18.25v-53.63h66.66h0.41
			V583.12z"/>
		<path fill="#AFD3E0" d="M154.74,485.12v75h-0.41H87.67H52.41C50.83,553.34,50,546.27,50,539c0-20.08,6.37-38.67,17.19-53.88
			H154.74z"/>
		<path fill="#AFD3E0" d="M87.67,629.95v2.17H19.85h-2.8v-72h2.8h32.56c5.07,21.83,17.82,40.71,35.26,53.63V629.95z"/>
		<path fill="#AFD3E0" d="M87.67,560.12v53.63c-17.44-12.92-30.19-31.8-35.26-53.63H87.67z"/>
		<path fill="#AFD3E0" d="M19.85,485.12h47.34C56.37,500.33,50,518.92,50,539c0,7.27,0.83,14.34,2.41,21.12H19.85h-2.8v-75H19.85z"
			/>
	</g>
	<g>
		<polygon fill="none" stroke="#000000" stroke-width="8" stroke-miterlimit="10" points="599,451.5 599,727.26 414.28,727.26 
			292.74,727.26 154.74,727.26 17.05,727.26 17.05,632.12 17.05,560.12 17.05,485.12 17.05,391.12 17.05,311.31 414.28,311.31 
			599,311.31 		"/>
		<polyline fill="none" stroke="#000000" stroke-width="8" stroke-miterlimit="10" points="414.28,310.24 414.28,311.31 
			414.28,391.12 414.28,451.5 414.28,485.12 414.28,668.12 414.28,724.33 		"/>
		<polyline fill="none" stroke="#000000" stroke-width="8" stroke-miterlimit="10" points="414.33,451.5 599,451.5 600,451.5 		"/>
		<polyline fill="none" stroke="#000000" stroke-width="8" stroke-miterlimit="10" points="19.85,485.12 67.19,485.12 
			154.74,485.12 218.81,485.12 292.74,485.12 413.67,485.12 		"/>
		<polyline fill="none" stroke="#000000" stroke-width="8" stroke-miterlimit="10" points="154.74,484.38 154.74,485.12 
			154.74,560.12 154.74,583.12 154.74,631.26 154.74,632.12 154.74,724.33 		"/>
		<polyline fill="none" stroke="#000000" stroke-width="8" stroke-miterlimit="10" points="19.85,560.12 52.41,560.12 87.67,560.12 
			154.33,560.12 		"/>
		<polyline fill="none" stroke="#000000" stroke-width="8" stroke-miterlimit="10" points="87.67,560.12 87.67,613.75 87.67,629.95 
					"/>
		<polyline fill="none" stroke="#000000" stroke-width="8" stroke-miterlimit="10" points="19.85,632.12 87.67,632.12 
			154.74,632.12 221.74,632.12 292.74,632.12 296.57,632.12 		"/>
		<polyline fill="none" stroke="#000000" stroke-width="8" stroke-miterlimit="10" points="156.33,583.12 221.74,583.12 
			224.88,583.12 292.74,583.12 293.33,583.12 		"/>
		<polyline fill="none" stroke="#000000" stroke-width="8" stroke-miterlimit="10" points="292.74,482.03 292.74,485.12 
			292.74,583.12 292.74,632.12 292.74,668.12 292.74,724.34 		"/>
		<polyline fill="none" stroke="#000000" stroke-width="8" stroke-miterlimit="10" points="221.74,487.2 221.74,489.5 
			221.74,583.12 221.74,588.5 221.74,630.34 		"/>
		<polyline fill="none" stroke="#000000" stroke-width="8" stroke-miterlimit="10" points="291.33,668.12 292.74,668.12 
			414.28,668.12 416.33,668.12 		"/>
		<line fill="none" stroke="#000000" stroke-width="8" stroke-miterlimit="10" x1="17.85" y1="391.12" x2="411.67" y2="391.12"/>
		<path fill="none" stroke="#B11116" stroke-width="5.1667" stroke-miterlimit="10" d="M221.74,489.5
			C230.78,503.83,236,520.81,236,539c0,15.97-4.02,30.99-11.12,44.12c-0.98,1.83-2.03,3.63-3.14,5.38
			c-14.48,23-38.77,39.21-67,42.76c-3.84,0.49-7.76,0.74-11.74,0.74c-20.73,0-39.87-6.78-55.33-18.25
			c-17.44-12.92-30.19-31.8-35.26-53.63C50.83,553.34,50,546.27,50,539c0-20.08,6.37-38.67,17.19-53.88
			C84.05,461.44,111.72,446,143,446s58.95,15.44,75.81,39.12C219.83,486.55,220.81,488.01,221.74,489.5z"/>
	</g>
</g>
<circle fill="#B11116" cx="142" cy="539.688" r="4.688"/>
<line fill="none" stroke="#B11116" stroke-width="4" stroke-miterlimit="10" x1="143" y1="539" x2="209" y2="473"/>
<rect x="-336" y="529" fill="none" width="99" height="114"/>
<rect x="169" y="513" fill="none" width="63" height="40"/>
<text transform="matrix(1 0 0 1 169 533.3398)" font-family="'Calibri-Bold'" font-size="30">r</text>
<text transform="matrix(0.583 0 0 0.583 179.6641 543.3301)" font-family="'Calibri-Bold'" font-size="30">open</text>
</svg>
