<?xml version="1.0" encoding="utf-8"?>
<!-- Generator: Adobe Illustrator 15.1.0, SVG Export Plug-In . SVG Version: 6.00 Build 0)  -->
<!DOCTYPE svg PUBLIC "-//W3C//DTD SVG 1.1//EN" "http://www.w3.org/Graphics/SVG/1.1/DTD/svg11.dtd">
<svg version="1.1" xmlns="http://www.w3.org/2000/svg" xmlns:xlink="http://www.w3.org/1999/xlink" x="0px" y="0px" width="612px"
	 height="792px" viewBox="0 0 612 792" enable-background="new 0 0 612 792" xml:space="preserve">
<g id="Layer_2">
	<g opacity="0.43">
		<g id="XMLID_1_">
			<g>
				<rect x="324.62" y="692.99" fill="#4896D1" width="38.04" height="38.04"/>
				<rect x="324.62" y="654.94" fill="#4896D1" width="38.04" height="38.05"/>
				<rect x="286.51" y="654.94" fill="#4896D1" width="38.11" height="38.05"/>
				<rect x="286.51" y="616.9" fill="#4896D1" width="38.11" height="38.04"/>
			</g>
			<g>
				<polygon fill="none" stroke="#000000" stroke-miterlimit="10" points="172.38,502.7 172.38,464.65 210.42,464.65 248.47,464.65 
					286.51,464.65 324.62,464.65 362.66,464.65 400.71,464.65 438.75,464.65 438.75,502.7 438.75,540.74 438.75,578.79 
					438.75,616.9 438.75,654.94 438.75,692.99 438.75,731.03 400.71,731.03 362.66,731.03 324.62,731.03 286.51,731.03 
					248.47,731.03 210.42,731.03 172.38,731.03 172.38,692.99 172.38,654.94 172.38,616.9 172.38,578.79 172.38,540.74 				"/>
				<polyline fill="none" stroke="#000000" stroke-miterlimit="10" points="172.38,692.99 210.42,692.99 248.47,692.99 
					286.51,692.99 324.62,692.99 362.66,692.99 400.71,692.99 438.75,692.99 				"/>
				<polyline fill="none" stroke="#000000" stroke-miterlimit="10" points="172.38,654.94 210.42,654.94 248.47,654.94 
					286.51,654.94 324.62,654.94 362.66,654.94 400.71,654.94 438.75,654.94 				"/>
				<polyline fill="none" stroke="#000000" stroke-miterlimit="10" points="172.38,616.9 210.42,616.9 248.47,616.9 286.51,616.9 
					324.62,616.9 362.66,616.9 400.71,616.9 438.75,616.9 				"/>
				<polyline fill="none" stroke="#000000" stroke-miterlimit="10" points="172.38,578.79 210.42,578.79 248.47,578.79 
					286.51,578.79 324.62,578.79 362.66,578.79 400.71,578.79 438.75,578.79 				"/>
				<polyline fill="none" stroke="#000000" stroke-miterlimit="10" points="172.38,540.74 210.42,540.74 248.47,540.74 
					286.51,540.74 324.62,540.74 362.66,540.74 400.71,540.74 438.75,540.74 				"/>
				<polyline fill="none" stroke="#000000" stroke-miterlimit="10" points="172.38,502.7 210.42,502.7 248.47,502.7 286.51,502.7 
					324.62,502.7 362.66,502.7 400.71,502.7 438.75,502.7 				"/>
				<polyline fill="none" stroke="#000000" stroke-miterlimit="10" points="400.71,464.65 400.71,502.7 400.71,540.74 
					400.71,578.79 400.71,616.9 400.71,654.94 400.71,692.99 400.71,731.03 				"/>
				<polyline fill="none" stroke="#000000" stroke-miterlimit="10" points="362.66,464.65 362.66,502.7 362.66,540.74 
					362.66,578.79 362.66,616.9 362.66,654.94 362.66,692.99 362.66,731.03 				"/>
				<polyline fill="none" stroke="#000000" stroke-miterlimit="10" points="324.62,464.65 324.62,502.7 324.62,540.74 
					324.62,578.79 324.62,616.9 324.62,654.94 324.62,692.99 324.62,731.03 				"/>
				<polyline fill="none" stroke="#000000" stroke-miterlimit="10" points="286.51,464.65 286.51,502.7 286.51,540.74 
					286.51,578.79 286.51,616.9 286.51,654.94 286.51,692.99 286.51,731.03 				"/>
				<polyline fill="none" stroke="#000000" stroke-miterlimit="10" points="248.47,464.65 248.47,502.7 248.47,540.74 
					248.47,578.79 248.47,616.9 248.47,654.94 248.47,692.99 248.47,731.03 				"/>
				<polyline fill="none" stroke="#000000" stroke-miterlimit="10" points="210.42,464.65 210.42,502.7 210.42,540.74 
					210.42,578.79 210.42,616.9 210.42,654.94 210.42,692.99 210.42,731.03 				"/>
			</g>
		</g>
	</g>
	<rect x="287" y="541" fill="none" stroke="#ED1C24" stroke-width="2" stroke-miterlimit="10" width="37.5" height="37.5"/>
	<rect x="288.75" y="554" fill="none" width="27" height="28.5"/>
	<text transform="matrix(0.583 0 0 0.583 288.75 574.8594)" font-family="'Myriad-Roman'" font-size="20">a</text>
	<rect x="288.75" y="479.5" fill="none" width="27" height="28.5"/>
	<text transform="matrix(0.583 0 0 0.583 288.75 500.3594)" font-family="'Myriad-Roman'" font-size="20">b</text>
	<rect x="287" y="465" fill="none" stroke="#762B90" stroke-width="2" stroke-miterlimit="10" width="37.5" height="37.5"/>
</g>
<g id="Layer_1">
	<g opacity="0.43">
		<g id="XMLID_2_">
			<g>
				<rect x="324.62" y="692.99" fill="#4896D1" width="38.04" height="38.04"/>
				<rect x="324.62" y="654.94" fill="#4896D1" width="38.04" height="38.05"/>
				<rect x="286.51" y="654.94" fill="#4896D1" width="38.11" height="38.05"/>
				<rect x="286.51" y="616.9" fill="#4896D1" width="38.11" height="38.04"/>
			</g>
			<g>
				<polygon fill="none" stroke="#000000" stroke-miterlimit="10" points="172.38,502.7 172.38,464.65 210.42,464.65 248.47,464.65 
					286.51,464.65 324.62,464.65 362.66,464.65 400.71,464.65 438.75,464.65 438.75,502.7 438.75,540.74 438.75,578.79 
					438.75,616.9 438.75,654.94 438.75,692.99 438.75,731.03 400.71,731.03 362.66,731.03 324.62,731.03 286.51,731.03 
					248.47,731.03 210.42,731.03 172.38,731.03 172.38,692.99 172.38,654.94 172.38,616.9 172.38,578.79 172.38,540.74 				"/>
				<polyline fill="none" stroke="#000000" stroke-miterlimit="10" points="172.38,692.99 210.42,692.99 248.47,692.99 
					286.51,692.99 324.62,692.99 362.66,692.99 400.71,692.99 438.75,692.99 				"/>
				<polyline fill="none" stroke="#000000" stroke-miterlimit="10" points="172.38,654.94 210.42,654.94 248.47,654.94 
					286.51,654.94 324.62,654.94 362.66,654.94 400.71,654.94 438.75,654.94 				"/>
				<polyline fill="none" stroke="#000000" stroke-miterlimit="10" points="172.38,616.9 210.42,616.9 248.47,616.9 286.51,616.9 
					324.62,616.9 362.66,616.9 400.71,616.9 438.75,616.9 				"/>
				<polyline fill="none" stroke="#000000" stroke-miterlimit="10" points="172.38,578.79 210.42,578.79 248.47,578.79 
					286.51,578.79 324.62,578.79 362.66,578.79 400.71,578.79 438.75,578.79 				"/>
				<polyline fill="none" stroke="#000000" stroke-miterlimit="10" points="172.38,540.74 210.42,540.74 248.47,540.74 
					286.51,540.74 324.62,540.74 362.66,540.74 400.71,540.74 438.75,540.74 				"/>
				<polyline fill="none" stroke="#000000" stroke-miterlimit="10" points="172.38,502.7 210.42,502.7 248.47,502.7 286.51,502.7 
					324.62,502.7 362.66,502.7 400.71,502.7 438.75,502.7 				"/>
				<polyline fill="none" stroke="#000000" stroke-miterlimit="10" points="400.71,464.65 400.71,502.7 400.71,540.74 
					400.71,578.79 400.71,616.9 400.71,654.94 400.71,692.99 400.71,731.03 				"/>
				<polyline fill="none" stroke="#000000" stroke-miterlimit="10" points="362.66,464.65 362.66,502.7 362.66,540.74 
					362.66,578.79 362.66,616.9 362.66,654.94 362.66,692.99 362.66,731.03 				"/>
				<polyline fill="none" stroke="#000000" stroke-miterlimit="10" points="324.62,464.65 324.62,502.7 324.62,540.74 
					324.62,578.79 324.62,616.9 324.62,654.94 324.62,692.99 324.62,731.03 				"/>
				<polyline fill="none" stroke="#000000" stroke-miterlimit="10" points="286.51,464.65 286.51,502.7 286.51,540.74 
					286.51,578.79 286.51,616.9 286.51,654.94 286.51,692.99 286.51,731.03 				"/>
				<polyline fill="none" stroke="#000000" stroke-miterlimit="10" points="248.47,464.65 248.47,502.7 248.47,540.74 
					248.47,578.79 248.47,616.9 248.47,654.94 248.47,692.99 248.47,731.03 				"/>
				<polyline fill="none" stroke="#000000" stroke-miterlimit="10" points="210.42,464.65 210.42,502.7 210.42,540.74 
					210.42,578.79 210.42,616.9 210.42,654.94 210.42,692.99 210.42,731.03 				"/>
			</g>
		</g>
	</g>
	<polygon fill="#FFDA00" stroke="#B4810B" stroke-width="2" stroke-miterlimit="10" points="305.564,587.379 308.963,594.267 
		316.564,595.371 311.064,600.732 312.362,608.303 305.564,604.729 298.765,608.303 300.064,600.732 294.564,595.371 
		302.165,594.267 	"/>
	<g>
		<g>
			
				<line fill="none" stroke="#000000" stroke-width="1.5" stroke-miterlimit="10" x1="337.281" y1="713.993" x2="308.341" y2="610.126"/>
			<g>
				<path d="M338.739,719.226c0.228-2.717,0.936-6.206,2.059-8.56l-3.708,2.641l-4.538-0.343
					C334.73,714.397,337.141,717.018,338.739,719.226z"/>
			</g>
		</g>
	</g>
	<g opacity="0.4">
		<g>
			
				<line fill="none" stroke="#000000" stroke-width="1.5" stroke-miterlimit="10" x1="338.412" y1="481.688" x2="309.472" y2="585.556"/>
			<g>
				<path d="M339.87,476.456c-1.6,2.208-4.01,4.828-6.188,6.262l4.538-0.343l3.707,2.64
					C340.805,482.661,340.097,479.173,339.87,476.456z"/>
			</g>
		</g>
	</g>
	<g opacity="0.4">
		<g>
			
				<line fill="none" stroke="#000000" stroke-width="1.5" stroke-miterlimit="10" x1="305.889" y1="480.716" x2="305.889" y2="585.145"/>
			<g>
				<path d="M305.889,475.284c-0.948,2.556-2.566,5.727-4.28,7.692l4.28-1.548l4.279,1.548
					C308.454,481.011,306.836,477.84,305.889,475.284z"/>
			</g>
		</g>
	</g>
	<g opacity="0.4">
		<g>
			
				<line fill="none" stroke="#000000" stroke-width="1.5" stroke-miterlimit="10" x1="273.847" y1="481.688" x2="302.788" y2="585.556"/>
			<g>
				<path d="M272.389,476.456c-0.228,2.717-0.935,6.206-2.059,8.56l3.708-2.641l4.538,0.343
					C276.397,481.284,273.988,478.664,272.389,476.456z"/>
			</g>
		</g>
	</g>
	<rect x="347.5" y="714" fill="none" width="30" height="17"/>
	
		<text transform="matrix(1 0 0 1 347.5 722.5195)" stroke="#000000" stroke-width="0.25" stroke-miterlimit="10" font-family="'SymbolMT'" font-size="12">a</text>
	
		<text transform="matrix(0.583 0 0 0.583 355.0703 726.5156)" stroke="#000000" stroke-width="0.25" stroke-miterlimit="10" font-family="'MyriadPro-Regular'" font-size="12">ij</text>
</g>
</svg>
