<?xml version="1.0" encoding="UTF-8" standalone="no"?>
<!-- Generator: Adobe Illustrator 15.1.0, SVG Export Plug-In . SVG Version: 6.00 Build 0)  -->

<svg
   xmlns:dc="http://purl.org/dc/elements/1.1/"
   xmlns:cc="http://creativecommons.org/ns#"
   xmlns:rdf="http://www.w3.org/1999/02/22-rdf-syntax-ns#"
   xmlns:svg="http://www.w3.org/2000/svg"
   xmlns="http://www.w3.org/2000/svg"
   xmlns:sodipodi="http://sodipodi.sourceforge.net/DTD/sodipodi-0.dtd"
   xmlns:inkscape="http://www.inkscape.org/namespaces/inkscape"
   version="1.1"
   id="Layer_1"
   x="0px"
   y="0px"
   width="612px"
   height="792px"
   viewBox="0 0 612 792"
   enable-background="new 0 0 612 792"
   xml:space="preserve"
   inkscape:version="0.48.4 r9939"
   sodipodi:docname="RT_tree.svg"><metadata
   id="metadata63"><rdf:RDF><cc:Work
       rdf:about=""><dc:format>image/svg+xml</dc:format><dc:type
         rdf:resource="http://purl.org/dc/dcmitype/StillImage" /></cc:Work></rdf:RDF></metadata><defs
   id="defs61" /><sodipodi:namedview
   pagecolor="#ffffff"
   bordercolor="#666666"
   borderopacity="1"
   objecttolerance="10"
   gridtolerance="10"
   guidetolerance="10"
   inkscape:pageopacity="0"
   inkscape:pageshadow="2"
   inkscape:window-width="1136"
   inkscape:window-height="748"
   id="namedview59"
   showgrid="false"
   inkscape:zoom="0.84281414"
   inkscape:cx="313.1282"
   inkscape:cy="648.9428"
   inkscape:window-x="1772"
   inkscape:window-y="50"
   inkscape:window-maximized="0"
   inkscape:current-layer="Layer_1" />
<g
   id="g3">
	
		<rect
   x="224.669"
   y="14.25"
   fill="#C0C2C4"
   stroke="#000000"
   stroke-width="4"
   stroke-linejoin="round"
   stroke-miterlimit="10"
   width="221.379"
   height="127.751"
   id="rect5" />
</g>
<rect
   x="134.048"
   y="205.755"
   fill="#E68B88"
   stroke="#000000"
   stroke-width="4"
   stroke-linejoin="round"
   stroke-miterlimit="10"
   width="110.689"
   height="128.785"
   id="rect7" />
<rect
   x="425.172"
   y="205.755"
   fill="#72B0D3"
   stroke="#000000"
   stroke-width="4"
   stroke-linejoin="round"
   stroke-miterlimit="10"
   width="110.689"
   height="128.785"
   id="rect9" />
<g
   id="g11">
	
		<rect
   x="4.876"
   y="749.934"
   fill="none"
   stroke="#000000"
   stroke-width="4"
   stroke-linejoin="round"
   stroke-miterlimit="10"
   width="27.932"
   height="27.932"
   id="rect13" />
	
		<rect
   x="48.927"
   y="749.934"
   fill="#B4B6DB"
   stroke="#000000"
   stroke-width="4"
   stroke-linejoin="round"
   stroke-miterlimit="10"
   width="26.896"
   height="27.932"
   id="rect15" />
</g>
<rect
   x="206.996"
   y="399.418"
   fill="none"
   stroke="#000000"
   stroke-width="4"
   stroke-linejoin="round"
   stroke-miterlimit="10"
   width="110.689"
   height="69.133"
   id="rect17" />
<rect
   x="64.531"
   y="403.467"
   fill="#FFE791"
   stroke="#000000"
   stroke-width="4"
   stroke-linejoin="round"
   stroke-miterlimit="10"
   width="110.689"
   height="61.033"
   id="rect19" />
<rect
   x="496.082"
   y="406.57"
   fill="#B4B6DB"
   stroke="#000000"
   stroke-width="4"
   stroke-linejoin="round"
   stroke-miterlimit="10"
   width="109.655"
   height="54.826"
   id="rect21" />
<rect
   x="351.877"
   y="398.294"
   fill="none"
   stroke="#000000"
   stroke-width="4"
   stroke-linejoin="round"
   stroke-miterlimit="10"
   width="110.689"
   height="71.38"
   id="rect23" />
<g
   id="g25">
	
		<rect
   x="14.221"
   y="657.215"
   fill="#72B0D3"
   stroke="#000000"
   stroke-width="4"
   stroke-linejoin="round"
   stroke-miterlimit="10"
   width="53.793"
   height="28.965"
   id="rect27" />
	
		<rect
   x="81.875"
   y="657.215"
   fill="none"
   stroke="#000000"
   stroke-width="4"
   stroke-linejoin="round"
   stroke-miterlimit="10"
   width="53.793"
   height="28.965"
   id="rect29" />
</g>
<rect
   x="132.91"
   y="533.426"
   fill="none"
   stroke="#000000"
   stroke-width="4"
   stroke-linejoin="round"
   stroke-miterlimit="10"
   width="54.827"
   height="60"
   id="rect31" />
<rect
   x="48.323"
   y="533.461"
   fill="#77C093"
   stroke="#000000"
   stroke-width="4"
   stroke-linejoin="round"
   stroke-miterlimit="10"
   width="54.828"
   height="60"
   id="rect33" />
<line
   fill="none"
   stroke="#000000"
   stroke-width="4"
   stroke-linecap="round"
   stroke-linejoin="round"
   stroke-miterlimit="10"
   x1="332.052"
   y1="144.604"
   x2="192.559"
   y2="203.102"
   id="line35" />
<line
   fill="none"
   stroke="#000000"
   stroke-width="4"
   stroke-linecap="round"
   stroke-linejoin="round"
   stroke-miterlimit="10"
   x1="330.019"
   y1="144.625"
   x2="469.513"
   y2="203.124"
   id="line37" />
<line
   fill="none"
   stroke="#000000"
   stroke-width="4"
   stroke-linejoin="round"
   stroke-miterlimit="10"
   x1="40"
   y1="686.666"
   x2="18"
   y2="749.666"
   id="line39" />
<line
   fill="none"
   stroke="#000000"
   stroke-width="4"
   stroke-linejoin="round"
   stroke-miterlimit="10"
   x1="40"
   y1="685.666"
   x2="63"
   y2="751.666"
   id="line41" />
<line
   fill="none"
   stroke="#000000"
   stroke-width="4"
   stroke-linejoin="round"
   stroke-miterlimit="10"
   x1="75.5"
   y1="593.5"
   x2="38.75"
   y2="656.5"
   id="line43" />
<line
   fill="none"
   stroke="#000000"
   stroke-width="4"
   stroke-linejoin="round"
   stroke-miterlimit="10"
   x1="75.75"
   y1="593.75"
   x2="110.25"
   y2="656.75"
   id="line45" />
<line
   fill="none"
   stroke="#000000"
   stroke-width="4"
   stroke-linejoin="round"
   stroke-miterlimit="10"
   x1="119.667"
   y1="464.667"
   x2="77.667"
   y2="533.667"
   id="line47" />
<line
   fill="none"
   stroke="#000000"
   stroke-width="4"
   stroke-linejoin="round"
   stroke-miterlimit="10"
   x1="119.667"
   y1="464.667"
   x2="162.667"
   y2="533.667"
   id="line49" />
<line
   fill="none"
   stroke="#000000"
   stroke-width="4"
   stroke-linejoin="round"
   stroke-miterlimit="10"
   x1="193"
   y1="333.667"
   x2="120"
   y2="403.667"
   id="line51" />
<line
   fill="none"
   stroke="#000000"
   stroke-width="4"
   stroke-linejoin="round"
   stroke-miterlimit="10"
   x1="192"
   y1="334.667"
   x2="265"
   y2="399.667"
   id="line53" />
<line
   fill="none"
   stroke="#000000"
   stroke-width="4"
   stroke-linejoin="round"
   stroke-miterlimit="10"
   x1="479.667"
   y1="335.333"
   x2="407.667"
   y2="398.334"
   id="line55" />
<line
   fill="none"
   stroke="#000000"
   stroke-width="4"
   stroke-linejoin="round"
   stroke-miterlimit="10"
   x1="478.667"
   y1="334.333"
   x2="552.667"
   y2="406.334"
   id="line57" />
<g
   transform="translate(-38.314405,38.606979)"
   id="g1825"><ellipse
     d="m 152.16701,724.5 c 0,7.73199 -5.8203,14 -13,14 -7.1797,0 -13,-6.26801 -13,-14 0,-7.73199 5.8203,-14 13,-14 7.1797,0 13,6.26801 13,14 z"
     style="fill:none;stroke:#605b8d;stroke-width:3;stroke-linecap:round;stroke-miterlimit:10"
     sodipodi:ry="14"
     sodipodi:rx="13"
     sodipodi:cy="724.5"
     sodipodi:cx="139.16701"
     stroke-miterlimit="10"
     cx="139.16701"
     cy="724.5"
     rx="13"
     ry="14"
     id="ellipse1827" /><rect
     style="fill:none"
     x="130.5"
     y="712.83398"
     width="20"
     height="28"
     id="rect1829" /><text
     style="font-size:30px;fill:#605b8d;font-family:MyriadPro-Bold"
     transform="translate(130.5,734.1328)"
     font-size="30"
     id="text1831">1</text>
</g><g
   transform="translate(-47.250474,-75.931658)"
   id="g1833"><ellipse
     d="m 85.167,712.5 c 0,7.73199 -5.820298,14 -13,14 -7.179702,0 -13,-6.26801 -13,-14 0,-7.73199 5.820298,-14 13,-14 7.179702,0 13,6.26801 13,14 z"
     style="fill:none;stroke:#00548e;stroke-width:3;stroke-linecap:round;stroke-miterlimit:10"
     sodipodi:ry="14"
     sodipodi:rx="13"
     sodipodi:cy="712.5"
     sodipodi:cx="72.167"
     stroke-miterlimit="10"
     cx="72.167"
     cy="712.5"
     rx="13"
     ry="14"
     id="ellipse1835" /><rect
     style="fill:none"
     x="64.5"
     y="699.83398"
     width="20"
     height="28"
     id="rect1837" /><text
     style="font-size:30px;fill:#00548e;font-family:MyriadPro-Bold"
     transform="translate(64.5,721.1328)"
     font-size="30"
     id="text1839">2</text>
</g><g
   transform="translate(-27.230922,-70.475217)"
   id="g1841"><ellipse
     d="m 116.167,634.5 c 0,7.73199 -5.8203,14 -13,14 -7.179702,0 -13,-6.26801 -13,-14 0,-7.73199 5.820298,-14 13,-14 7.1797,0 13,6.26801 13,14 z"
     style="fill:none;stroke:#005b27;stroke-width:3;stroke-linecap:round;stroke-miterlimit:10"
     sodipodi:ry="14"
     sodipodi:rx="13"
     sodipodi:cy="634.5"
     sodipodi:cx="103.167"
     stroke-miterlimit="10"
     cx="103.167"
     cy="634.5"
     rx="13"
     ry="14"
     id="ellipse1843" /><rect
     style="fill:none"
     x="95.75"
     y="622.33398"
     width="20"
     height="28"
     id="rect1845" /><text
     style="font-size:30px;fill:#005b27;font-family:MyriadPro-Bold"
     transform="translate(95.75,643.6328)"
     font-size="30"
     id="text1847">3</text>
</g><g
   transform="translate(-124.32938,-238.36536)"
   id="g1849"><ellipse
     d="m 257.166,671.5 c 0,7.73199 -5.8203,14 -13,14 -7.1797,0 -13,-6.26801 -13,-14 0,-7.73199 5.8203,-14 13,-14 7.1797,0 13,6.26801 13,14 z"
     style="fill:none;stroke:#bc8f16;stroke-width:3;stroke-linecap:round;stroke-miterlimit:10"
     sodipodi:ry="14"
     sodipodi:rx="13"
     sodipodi:cy="671.5"
     sodipodi:cx="244.166"
     stroke-miterlimit="10"
     cx="244.166"
     cy="671.5"
     rx="13"
     ry="14"
     id="ellipse1851" /><rect
     style="fill:none"
     x="234.75"
     y="660.08398"
     width="20"
     height="28"
     id="rect1853" /><text
     style="font-size:30px;fill:#bc8f16;font-family:MyriadPro-Bold"
     transform="translate(234.75,681.3828)"
     font-size="30"
     id="text1855">4</text>
</g><g
   transform="translate(14.550183,-244.60254)"
   id="g1857"><ellipse
     d="m 185.91701,514 c 0,7.73199 -5.8203,14 -13,14 -7.1797,0 -13,-6.26801 -13,-14 0,-7.73199 5.8203,-14 13,-14 7.1797,0 13,6.26801 13,14 z"
     style="fill:none;stroke:#a51217;stroke-width:3;stroke-linecap:round;stroke-miterlimit:10"
     sodipodi:ry="14"
     sodipodi:rx="13"
     sodipodi:cy="514"
     sodipodi:cx="172.91701"
     stroke-miterlimit="10"
     cx="172.91701"
     cy="514"
     rx="13"
     ry="14"
     id="ellipse1859" /><rect
     style="fill:none"
     x="164.5"
     y="502.58401"
     width="20"
     height="28"
     id="rect1861" /><text
     style="font-size:30px;fill:#a51217;font-family:MyriadPro-Bold"
     transform="translate(164.5,523.8828)"
     font-size="30"
     id="text1863">5</text>
</g><g
   transform="translate(103.74158,-61.553872)"
   id="g1865"><ellipse
     d="m 464.54099,496 c 0,7.73199 -5.8203,14 -13,14 -7.17971,0 -13,-6.26801 -13,-14 0,-7.73199 5.82029,-14 13,-14 7.1797,0 13,6.26801 13,14 z"
     style="fill:none;stroke:#605b8d;stroke-width:3;stroke-linecap:round;stroke-miterlimit:10"
     sodipodi:ry="14"
     sodipodi:rx="13"
     sodipodi:cy="496"
     sodipodi:cx="451.54099"
     stroke-miterlimit="10"
     cx="451.54099"
     cy="496"
     rx="13"
     ry="14"
     id="ellipse1867" /><rect
     style="fill:none"
     x="442.875"
     y="484.33401"
     width="20"
     height="28"
     id="rect1869" /><text
     style="font-size:30px;fill:#605b8d;font-family:MyriadPro-Bold"
     transform="translate(442.875,505.6328)"
     font-size="30"
     id="text1871">6</text>
</g><g
   transform="translate(30.178506,-385.10452)"
   id="g1873"><ellipse
     d="m 464.54099,656.5 c 0,7.73199 -5.8203,14 -13,14 -7.17971,0 -13,-6.26801 -13,-14 0,-7.73199 5.82029,-14 13,-14 7.1797,0 13,6.26801 13,14 z"
     style="fill:none;stroke:#00548e;stroke-width:3;stroke-linecap:round;stroke-miterlimit:10"
     sodipodi:ry="14"
     sodipodi:rx="13"
     sodipodi:cy="656.5"
     sodipodi:cx="451.54099"
     stroke-miterlimit="10"
     cx="451.54099"
     cy="656.5"
     rx="13"
     ry="14"
     id="ellipse1875" /><rect
     style="fill:none"
     x="443.875"
     y="645.83398"
     width="20"
     height="28"
     id="rect1877" /><text
     style="font-size:30px;fill:#00548e;font-family:MyriadPro-Bold"
     transform="translate(443.875,667.1328)"
     font-size="30"
     id="text1879">7</text>
</g></svg>