<?xml version="1.0" encoding="UTF-8" standalone="no"?>
<!-- Created with Inkscape (http://www.inkscape.org/) -->

<svg
   xmlns:dc="http://purl.org/dc/elements/1.1/"
   xmlns:cc="http://creativecommons.org/ns#"
   xmlns:rdf="http://www.w3.org/1999/02/22-rdf-syntax-ns#"
   xmlns:svg="http://www.w3.org/2000/svg"
   xmlns="http://www.w3.org/2000/svg"
   xmlns:sodipodi="http://sodipodi.sourceforge.net/DTD/sodipodi-0.dtd"
   xmlns:inkscape="http://www.inkscape.org/namespaces/inkscape"
   width="744.09448819"
   height="1052.3622047"
   id="svg12418"
   version="1.1"
   inkscape:version="0.48.4 r9939"
   sodipodi:docname="tree_memory.svg">
  <defs
     id="defs12420" />
  <sodipodi:namedview
     id="base"
     pagecolor="#ffffff"
     bordercolor="#666666"
     borderopacity="1.0"
     inkscape:pageopacity="0.0"
     inkscape:pageshadow="2"
     inkscape:zoom="0.98994949"
     inkscape:cx="318.64119"
     inkscape:cy="730.37011"
     inkscape:document-units="px"
     inkscape:current-layer="layer1"
     showgrid="false"
     inkscape:window-width="871"
     inkscape:window-height="903"
     inkscape:window-x="569"
     inkscape:window-y="0"
     inkscape:window-maximized="0" />
  <metadata
     id="metadata12423">
    <rdf:RDF>
      <cc:Work
         rdf:about="">
        <dc:format>image/svg+xml</dc:format>
        <dc:type
           rdf:resource="http://purl.org/dc/dcmitype/StillImage" />
        <dc:title></dc:title>
      </cc:Work>
    </rdf:RDF>
  </metadata>
  <g
     inkscape:label="Layer 1"
     inkscape:groupmode="layer"
     id="layer1">
    <g
       transform="translate(69.693504,136.30417)"
       id="g12318">
      <rect
         style="fill:#c0c2c4;stroke:#000000;stroke-width:4;stroke-linejoin:round;stroke-miterlimit:10"
         x="224.66901"
         y="14.25"
         stroke-miterlimit="10"
         width="221.379"
         height="127.751"
         id="rect12320" />
    </g>
    <rect
       style="fill:#e68b88;stroke:#000000;stroke-width:4;stroke-linejoin:round;stroke-miterlimit:10"
       x="203.7415"
       y="342.05917"
       stroke-miterlimit="10"
       width="110.689"
       height="128.785"
       id="rect12322" />
    <rect
       style="fill:#ff2a2a;stroke:#000000;stroke-width:4;stroke-linejoin:round;stroke-miterlimit:10"
       x="494.86548"
       y="342.05917"
       stroke-miterlimit="10"
       width="110.689"
       height="128.785"
       id="rect12324" />
    <g
       transform="translate(69.693504,136.30417)"
       id="g12326">
      <rect
         style="fill:none;stroke:#000000;stroke-width:4;stroke-linejoin:round;stroke-miterlimit:10"
         x="4.8759999"
         y="749.93402"
         stroke-miterlimit="10"
         width="27.931999"
         height="27.931999"
         id="rect12328" />
      <rect
         style="fill:#b4b6db;stroke:#000000;stroke-width:4;stroke-linejoin:round;stroke-miterlimit:10"
         x="48.926998"
         y="749.93402"
         stroke-miterlimit="10"
         width="26.896"
         height="27.931999"
         id="rect12330" />
    </g>
    <rect
       style="fill:none;stroke:#000000;stroke-width:4;stroke-linejoin:round;stroke-miterlimit:10"
       x="276.68948"
       y="535.72217"
       stroke-miterlimit="10"
       width="110.689"
       height="69.133003"
       id="rect12332" />
    <rect
       style="fill:#ffe791;stroke:#000000;stroke-width:4;stroke-linejoin:round;stroke-miterlimit:10"
       x="134.2245"
       y="539.77118"
       stroke-miterlimit="10"
       width="110.689"
       height="61.033001"
       id="rect12334" />
    <rect
       style="fill:#b4b6db;stroke:#000000;stroke-width:4;stroke-linejoin:round;stroke-miterlimit:10"
       x="565.77551"
       y="542.87421"
       stroke-miterlimit="10"
       width="109.655"
       height="54.826"
       id="rect12336" />
    <rect
       style="fill:none;stroke:#000000;stroke-width:4;stroke-linejoin:round;stroke-miterlimit:10"
       x="421.5705"
       y="534.59821"
       stroke-miterlimit="10"
       width="110.689"
       height="71.379997"
       id="rect12338" />
    <g
       transform="translate(69.693504,136.30417)"
       id="g12340">
      <rect
         style="fill:#72b0d3;stroke:#000000;stroke-width:4;stroke-linejoin:round;stroke-miterlimit:10"
         x="14.221"
         y="657.21503"
         stroke-miterlimit="10"
         width="53.792999"
         height="28.965"
         id="rect12342" />
      <rect
         style="fill:none;stroke:#000000;stroke-width:4;stroke-linejoin:round;stroke-miterlimit:10"
         x="81.875"
         y="657.21503"
         stroke-miterlimit="10"
         width="53.792999"
         height="28.965"
         id="rect12344" />
    </g>
    <rect
       style="fill:none;stroke:#000000;stroke-width:4;stroke-linejoin:round;stroke-miterlimit:10"
       x="202.6035"
       y="669.73022"
       stroke-miterlimit="10"
       width="54.827"
       height="60"
       id="rect12346" />
    <rect
       style="fill:#77c093;stroke:#000000;stroke-width:4;stroke-linejoin:round;stroke-miterlimit:10"
       x="118.0165"
       y="669.7652"
       stroke-miterlimit="10"
       width="54.827999"
       height="60"
       id="rect12348" />
    <line
       style="fill:none;stroke:#000000;stroke-width:4;stroke-linecap:round;stroke-linejoin:round;stroke-miterlimit:10"
       stroke-miterlimit="10"
       x1="401.74548"
       y1="280.90817"
       x2="262.2525"
       y2="339.40619"
       id="line12350" />
    <line
       style="fill:none;stroke:#000000;stroke-width:4;stroke-linecap:round;stroke-linejoin:round;stroke-miterlimit:10"
       stroke-miterlimit="10"
       x1="399.71249"
       y1="280.92917"
       x2="539.20648"
       y2="339.42816"
       id="line12352" />
    <line
       style="fill:none;stroke:#000000;stroke-width:4;stroke-linejoin:round;stroke-miterlimit:10"
       stroke-miterlimit="10"
       x1="109.6935"
       y1="822.97021"
       x2="87.693504"
       y2="885.97021"
       id="line12354" />
    <line
       style="fill:none;stroke:#000000;stroke-width:4;stroke-linejoin:round;stroke-miterlimit:10"
       stroke-miterlimit="10"
       x1="109.6935"
       y1="821.97021"
       x2="132.6935"
       y2="887.97021"
       id="line12356" />
    <line
       style="fill:none;stroke:#000000;stroke-width:4;stroke-linejoin:round;stroke-miterlimit:10"
       stroke-miterlimit="10"
       x1="145.1935"
       y1="729.8042"
       x2="108.4435"
       y2="792.8042"
       id="line12358" />
    <line
       style="fill:none;stroke:#000000;stroke-width:4;stroke-linejoin:round;stroke-miterlimit:10"
       stroke-miterlimit="10"
       x1="145.4435"
       y1="730.0542"
       x2="179.9435"
       y2="793.0542"
       id="line12360" />
    <line
       style="fill:none;stroke:#000000;stroke-width:4;stroke-linejoin:round;stroke-miterlimit:10"
       stroke-miterlimit="10"
       x1="189.3605"
       y1="600.97119"
       x2="147.3605"
       y2="669.97119"
       id="line12362" />
    <line
       style="fill:none;stroke:#000000;stroke-width:4;stroke-linejoin:round;stroke-miterlimit:10"
       stroke-miterlimit="10"
       x1="189.3605"
       y1="600.97119"
       x2="232.3605"
       y2="669.97119"
       id="line12364" />
    <line
       style="fill:none;stroke:#000000;stroke-width:4;stroke-linejoin:round;stroke-miterlimit:10"
       stroke-miterlimit="10"
       x1="262.69348"
       y1="469.97116"
       x2="189.6935"
       y2="539.97119"
       id="line12366" />
    <line
       style="fill:none;stroke:#000000;stroke-width:4;stroke-linejoin:round;stroke-miterlimit:10"
       stroke-miterlimit="10"
       x1="261.69348"
       y1="470.97116"
       x2="334.69348"
       y2="535.97119"
       id="line12368" />
    <line
       style="fill:none;stroke:#000000;stroke-width:4;stroke-linejoin:round;stroke-miterlimit:10"
       stroke-miterlimit="10"
       x1="549.36047"
       y1="471.63718"
       x2="477.36047"
       y2="534.63818"
       id="line12370" />
    <line
       style="fill:none;stroke:#000000;stroke-width:4;stroke-linejoin:round;stroke-miterlimit:10"
       stroke-miterlimit="10"
       x1="548.36047"
       y1="470.63718"
       x2="622.36053"
       y2="542.63818"
       id="line12372" />
    <path
       style="fill:#ff6600;stroke:none;stroke-width:4.42857122000000030;stroke-miterlimit:4;stroke-opacity:1;stroke-dasharray:17.71428571999999900, 8.85714285999999800, 4.42857142999999990, 8.85714285999999800;stroke-dashoffset:0"
       d="m 568.9347,569.87393 0,-25 52.14286,0 52.14285,0 0,25 0,25 -52.14285,0 -52.14286,0 0,-25 z"
       id="path12487"
       inkscape:connector-curvature="0" />
    <g
       id="g13085"
       transform="matrix(0.44758207,0,0,0.41689219,228.38399,86.189092)">
      <circle
         id="circle4960"
         r="5.0430002"
         cy="312.742"
         cx="144"
         sodipodi:cx="144"
         sodipodi:cy="312.742"
         sodipodi:rx="5.0430002"
         sodipodi:ry="5.0430002"
         d="m 149.043,312.742 c 0,2.78518 -2.25783,5.043 -5.043,5.043 -2.78517,0 -5.043,-2.25782 -5.043,-5.043 0,-2.78517 2.25783,-5.043 5.043,-5.043 2.78517,0 5.043,2.25783 5.043,5.043 z"
         transform="translate(120.15326,107.99366)" />
      <circle
         id="circle4960-1"
         r="5.0430002"
         cy="312.742"
         cx="144"
         sodipodi:cx="144"
         sodipodi:cy="312.742"
         sodipodi:rx="5.0430002"
         sodipodi:ry="5.0430002"
         d="m 149.043,312.742 c 0,2.78518 -2.25783,5.043 -5.043,5.043 -2.78517,0 -5.043,-2.25782 -5.043,-5.043 0,-2.78517 2.25783,-5.043 5.043,-5.043 2.78517,0 5.043,2.25783 5.043,5.043 z"
         transform="translate(201.4592,101.06128)" />
      <circle
         id="circle4960-7"
         r="5.0430002"
         cy="312.742"
         cx="144"
         sodipodi:cx="144"
         sodipodi:cy="312.742"
         sodipodi:rx="5.0430002"
         sodipodi:ry="5.0430002"
         d="m 149.043,312.742 c 0,2.78518 -2.25783,5.043 -5.043,5.043 -2.78517,0 -5.043,-2.25782 -5.043,-5.043 0,-2.78517 2.25783,-5.043 5.043,-5.043 2.78517,0 5.043,2.25783 5.043,5.043 z"
         transform="translate(193.37798,36.411522)" />
      <circle
         id="circle4960-79"
         r="5.0430002"
         cy="312.742"
         cx="144"
         sodipodi:cx="144"
         sodipodi:cy="312.742"
         sodipodi:rx="5.0430002"
         sodipodi:ry="5.0430002"
         d="m 149.043,312.742 c 0,2.78518 -2.25783,5.043 -5.043,5.043 -2.78517,0 -5.043,-2.25782 -5.043,-5.043 0,-2.78517 2.25783,-5.043 5.043,-5.043 2.78517,0 5.043,2.25783 5.043,5.043 z"
         transform="translate(242.87546,58.634872)" />
      <circle
         id="circle4960-3"
         r="5.0430002"
         cy="312.742"
         cx="144"
         sodipodi:cx="144"
         sodipodi:cy="312.742"
         sodipodi:rx="5.0430002"
         sodipodi:ry="5.0430002"
         d="m 149.043,312.742 c 0,2.78518 -2.25783,5.043 -5.043,5.043 -2.78517,0 -5.043,-2.25782 -5.043,-5.043 0,-2.78517 2.25783,-5.043 5.043,-5.043 2.78517,0 5.043,2.25783 5.043,5.043 z"
         transform="translate(96.403334,106.11205)" />
      <circle
         id="circle4960-19"
         r="5.0430002"
         cy="312.742"
         cx="144"
         sodipodi:cx="144"
         sodipodi:cy="312.742"
         sodipodi:rx="5.0430002"
         sodipodi:ry="5.0430002"
         d="m 149.043,312.742 c 0,2.78518 -2.25783,5.043 -5.043,5.043 -2.78517,0 -5.043,-2.25782 -5.043,-5.043 0,-2.78517 2.25783,-5.043 5.043,-5.043 2.78517,0 5.043,2.25783 5.043,5.043 z"
         transform="translate(109.53532,131.36586)" />
      <circle
         id="circle4960-8"
         r="5.0430002"
         cy="312.742"
         cx="144"
         sodipodi:cx="144"
         sodipodi:cy="312.742"
         sodipodi:rx="5.0430002"
         sodipodi:ry="5.0430002"
         d="m 149.043,312.742 c 0,2.78518 -2.25783,5.043 -5.043,5.043 -2.78517,0 -5.043,-2.25782 -5.043,-5.043 0,-2.78517 2.25783,-5.043 5.043,-5.043 2.78517,0 5.043,2.25783 5.043,5.043 z"
         transform="translate(25.692656,91.969908)" />
      <circle
         id="circle4960-6"
         r="5.0430002"
         cy="312.742"
         cx="144"
         sodipodi:cx="144"
         sodipodi:cy="312.742"
         sodipodi:rx="5.0430002"
         sodipodi:ry="5.0430002"
         d="m 149.043,312.742 c 0,2.78518 -2.25783,5.043 -5.043,5.043 -2.78517,0 -5.043,-2.25782 -5.043,-5.043 0,-2.78517 2.25783,-5.043 5.043,-5.043 2.78517,0 5.043,2.25783 5.043,5.043 z"
         transform="translate(61.047996,98.030828)" />
      <circle
         id="circle4960-5"
         r="5.0430002"
         cy="312.742"
         cx="144"
         sodipodi:cx="144"
         sodipodi:cy="312.742"
         sodipodi:rx="5.0430002"
         sodipodi:ry="5.0430002"
         d="m 149.043,312.742 c 0,2.78518 -2.25783,5.043 -5.043,5.043 -2.78517,0 -5.043,-2.25782 -5.043,-5.043 0,-2.78517 2.25783,-5.043 5.043,-5.043 2.78517,0 5.043,2.25783 5.043,5.043 z"
         transform="translate(36.804336,119.24403)" />
      <circle
         id="circle4960-0"
         r="5.0430002"
         cy="312.742"
         cx="144"
         sodipodi:cx="144"
         sodipodi:cy="312.742"
         sodipodi:rx="5.0430002"
         sodipodi:ry="5.0430002"
         d="m 149.043,312.742 c 0,2.78518 -2.25783,5.043 -5.043,5.043 -2.78517,0 -5.043,-2.25782 -5.043,-5.043 0,-2.78517 2.25783,-5.043 5.043,-5.043 2.78517,0 5.043,2.25783 5.043,5.043 z"
         transform="translate(46.905856,23.279532)" />
      <circle
         id="circle4960-2"
         r="5.0430002"
         cy="312.742"
         cx="144"
         sodipodi:cx="144"
         sodipodi:cy="312.742"
         sodipodi:rx="5.0430002"
         sodipodi:ry="5.0430002"
         d="m 149.043,312.742 c 0,2.78518 -2.25783,5.043 -5.043,5.043 -2.78517,0 -5.043,-2.25782 -5.043,-5.043 0,-2.78517 2.25783,-5.043 5.043,-5.043 2.78517,0 5.043,2.25783 5.043,5.043 z"
         transform="translate(86.301809,51.563802)" />
      <circle
         id="circle4960-86"
         r="5.0430002"
         cy="312.742"
         cx="144"
         sodipodi:cx="144"
         sodipodi:cy="312.742"
         sodipodi:rx="5.0430002"
         sodipodi:ry="5.0430002"
         d="m 149.043,312.742 c 0,2.78518 -2.25783,5.043 -5.043,5.043 -2.78517,0 -5.043,-2.25782 -5.043,-5.043 0,-2.78517 2.25783,-5.043 5.043,-5.043 2.78517,0 5.043,2.25783 5.043,5.043 z"
         transform="translate(116.60638,32.370912)" />
      <circle
         id="circle4960-02"
         r="5.0430002"
         cy="312.742"
         cx="144"
         sodipodi:cx="144"
         sodipodi:cy="312.742"
         sodipodi:rx="5.0430002"
         sodipodi:ry="5.0430002"
         d="m 149.043,312.742 c 0,2.78518 -2.25783,5.043 -5.043,5.043 -2.78517,0 -5.043,-2.25782 -5.043,-5.043 0,-2.78517 2.25783,-5.043 5.043,-5.043 2.78517,0 5.043,2.25783 5.043,5.043 z"
         transform="translate(137.81959,-129.2535)" />
      <circle
         id="circle4960-4"
         r="5.0430002"
         cy="312.742"
         cx="144"
         sodipodi:cx="144"
         sodipodi:cy="312.742"
         sodipodi:rx="5.0430002"
         sodipodi:ry="5.0430002"
         d="m 149.043,312.742 c 0,2.78518 -2.25783,5.043 -5.043,5.043 -2.78517,0 -5.043,-2.25782 -5.043,-5.043 0,-2.78517 2.25783,-5.043 5.043,-5.043 2.78517,0 5.043,2.25783 5.043,5.043 z"
         transform="translate(77.210436,-90.867698)" />
      <circle
         id="circle4960-865"
         r="5.0430002"
         cy="312.742"
         cx="144"
         sodipodi:cx="144"
         sodipodi:cy="312.742"
         sodipodi:rx="5.0430002"
         sodipodi:ry="5.0430002"
         d="m 149.043,312.742 c 0,2.78518 -2.25783,5.043 -5.043,5.043 -2.78517,0 -5.043,-2.25782 -5.043,-5.043 0,-2.78517 2.25783,-5.043 5.043,-5.043 2.78517,0 5.043,2.25783 5.043,5.043 z"
         transform="translate(215.60134,-54.502208)" />
      <circle
         id="circle4960-02-0"
         r="5.0430002"
         cy="312.742"
         cx="144"
         sodipodi:cx="144"
         sodipodi:cy="312.742"
         sodipodi:rx="5.0430002"
         sodipodi:ry="5.0430002"
         d="m 149.043,312.742 c 0,2.78518 -2.25783,5.043 -5.043,5.043 -2.78517,0 -5.043,-2.25782 -5.043,-5.043 0,-2.78517 2.25783,-5.043 5.043,-5.043 2.78517,0 5.043,2.25783 5.043,5.043 z"
         transform="translate(418.642,-137.83979)" />
      <circle
         id="circle4960-02-07"
         r="5.0430002"
         cy="312.742"
         cx="144"
         sodipodi:cx="144"
         sodipodi:cy="312.742"
         sodipodi:rx="5.0430002"
         sodipodi:ry="5.0430002"
         d="m 149.043,312.742 c 0,2.78518 -2.25783,5.043 -5.043,5.043 -2.78517,0 -5.043,-2.25782 -5.043,-5.043 0,-2.78517 2.25783,-5.043 5.043,-5.043 2.78517,0 5.043,2.25783 5.043,5.043 z"
         transform="translate(334.29426,-58.542818)" />
      <circle
         id="circle4960-02-2"
         r="5.0430002"
         cy="312.742"
         cx="144"
         sodipodi:cx="144"
         sodipodi:cy="312.742"
         sodipodi:rx="5.0430002"
         sodipodi:ry="5.0430002"
         d="m 149.043,312.742 c 0,2.78518 -2.25783,5.043 -5.043,5.043 -2.78517,0 -5.043,-2.25782 -5.043,-5.043 0,-2.78517 2.25783,-5.043 5.043,-5.043 2.78517,0 5.043,2.25783 5.043,5.043 z"
         transform="translate(469.14963,-97.938768)" />
      <circle
         id="circle4960-02-5"
         r="5.0430002"
         cy="312.742"
         cx="144"
         sodipodi:cx="144"
         sodipodi:cy="312.742"
         sodipodi:rx="5.0430002"
         sodipodi:ry="5.0430002"
         d="m 149.043,312.742 c 0,2.78518 -2.25783,5.043 -5.043,5.043 -2.78517,0 -5.043,-2.25782 -5.043,-5.043 0,-2.78517 2.25783,-5.043 5.043,-5.043 2.78517,0 5.043,2.25783 5.043,5.043 z"
         transform="translate(415.61154,-6.519958)" />
      <circle
         id="circle4960-02-52"
         r="5.0430002"
         cy="312.742"
         cx="144"
         sodipodi:cx="144"
         sodipodi:cy="312.742"
         sodipodi:rx="5.0430002"
         sodipodi:ry="5.0430002"
         d="m 149.043,312.742 c 0,2.78518 -2.25783,5.043 -5.043,5.043 -2.78517,0 -5.043,-2.25782 -5.043,-5.043 0,-2.78517 2.25783,-5.043 5.043,-5.043 2.78517,0 5.043,2.25783 5.043,5.043 z"
         transform="translate(374.19529,109.64758)" />
      <circle
         id="circle4960-02-1"
         r="5.0430002"
         cy="312.742"
         cx="144"
         sodipodi:cx="144"
         sodipodi:cy="312.742"
         sodipodi:rx="5.0430002"
         sodipodi:ry="5.0430002"
         d="m 149.043,312.742 c 0,2.78518 -2.25783,5.043 -5.043,5.043 -2.78517,0 -5.043,-2.25782 -5.043,-5.043 0,-2.78517 2.25783,-5.043 5.043,-5.043 2.78517,0 5.043,2.25783 5.043,5.043 z"
         transform="translate(477.73592,55.604412)" />
    </g>
    <g
       id="g13168"
       transform="matrix(0.453296,0,0,0.453296,251.19767,111.37197)">
      <circle
         id="circle4960-48"
         r="5.0430002"
         cy="312.742"
         cx="144"
         sodipodi:cx="144"
         sodipodi:cy="312.742"
         sodipodi:rx="5.0430002"
         sodipodi:ry="5.0430002"
         d="m 149.043,312.742 c 0,2.78518 -2.25783,5.043 -5.043,5.043 -2.78517,0 -5.043,-2.25782 -5.043,-5.043 0,-2.78517 2.25783,-5.043 5.043,-5.043 2.78517,0 5.043,2.25783 5.043,5.043 z"
         transform="translate(-140.95821,445.5271)" />
      <circle
         id="circle4960-1-6"
         r="5.0430002"
         cy="312.742"
         cx="144"
         sodipodi:cx="144"
         sodipodi:cy="312.742"
         sodipodi:rx="5.0430002"
         sodipodi:ry="5.0430002"
         d="m 149.043,312.742 c 0,2.78518 -2.25783,5.043 -5.043,5.043 -2.78517,0 -5.043,-2.25782 -5.043,-5.043 0,-2.78517 2.25783,-5.043 5.043,-5.043 2.78517,0 5.043,2.25783 5.043,5.043 z"
         transform="translate(-59.652267,438.59472)" />
      <circle
         id="circle4960-7-4"
         r="5.0430002"
         cy="312.742"
         cx="144"
         sodipodi:cx="144"
         sodipodi:cy="312.742"
         sodipodi:rx="5.0430002"
         sodipodi:ry="5.0430002"
         d="m 149.043,312.742 c 0,2.78518 -2.25783,5.043 -5.043,5.043 -2.78517,0 -5.043,-2.25782 -5.043,-5.043 0,-2.78517 2.25783,-5.043 5.043,-5.043 2.78517,0 5.043,2.25783 5.043,5.043 z"
         transform="translate(-67.733487,373.94496)" />
      <circle
         id="circle4960-79-6"
         r="5.0430002"
         cy="312.742"
         cx="144"
         sodipodi:cx="144"
         sodipodi:cy="312.742"
         sodipodi:rx="5.0430002"
         sodipodi:ry="5.0430002"
         d="m 149.043,312.742 c 0,2.78518 -2.25783,5.043 -5.043,5.043 -2.78517,0 -5.043,-2.25782 -5.043,-5.043 0,-2.78517 2.25783,-5.043 5.043,-5.043 2.78517,0 5.043,2.25783 5.043,5.043 z"
         transform="translate(-18.236007,396.16831)" />
      <circle
         id="circle4960-3-8"
         r="5.0430002"
         cy="312.742"
         cx="144"
         sodipodi:cx="144"
         sodipodi:cy="312.742"
         sodipodi:rx="5.0430002"
         sodipodi:ry="5.0430002"
         d="m 149.043,312.742 c 0,2.78518 -2.25783,5.043 -5.043,5.043 -2.78517,0 -5.043,-2.25782 -5.043,-5.043 0,-2.78517 2.25783,-5.043 5.043,-5.043 2.78517,0 5.043,2.25783 5.043,5.043 z"
         transform="translate(-164.70813,443.64549)" />
      <circle
         id="circle4960-19-9"
         r="5.0430002"
         cy="312.742"
         cx="144"
         sodipodi:cx="144"
         sodipodi:cy="312.742"
         sodipodi:rx="5.0430002"
         sodipodi:ry="5.0430002"
         d="m 149.043,312.742 c 0,2.78518 -2.25783,5.043 -5.043,5.043 -2.78517,0 -5.043,-2.25782 -5.043,-5.043 0,-2.78517 2.25783,-5.043 5.043,-5.043 2.78517,0 5.043,2.25783 5.043,5.043 z"
         transform="translate(-151.57615,468.8993)" />
      <circle
         id="circle4960-8-8"
         r="5.0430002"
         cy="312.742"
         cx="144"
         sodipodi:cx="144"
         sodipodi:cy="312.742"
         sodipodi:rx="5.0430002"
         sodipodi:ry="5.0430002"
         d="m 149.043,312.742 c 0,2.78518 -2.25783,5.043 -5.043,5.043 -2.78517,0 -5.043,-2.25782 -5.043,-5.043 0,-2.78517 2.25783,-5.043 5.043,-5.043 2.78517,0 5.043,2.25783 5.043,5.043 z"
         transform="translate(-235.41881,429.50335)" />
      <circle
         id="circle4960-6-3"
         r="5.0430002"
         cy="312.742"
         cx="144"
         sodipodi:cx="144"
         sodipodi:cy="312.742"
         sodipodi:rx="5.0430002"
         sodipodi:ry="5.0430002"
         d="m 149.043,312.742 c 0,2.78518 -2.25783,5.043 -5.043,5.043 -2.78517,0 -5.043,-2.25782 -5.043,-5.043 0,-2.78517 2.25783,-5.043 5.043,-5.043 2.78517,0 5.043,2.25783 5.043,5.043 z"
         transform="translate(-200.06347,435.56427)" />
      <circle
         id="circle4960-5-5"
         r="5.0430002"
         cy="312.742"
         cx="144"
         sodipodi:cx="144"
         sodipodi:cy="312.742"
         sodipodi:rx="5.0430002"
         sodipodi:ry="5.0430002"
         d="m 149.043,312.742 c 0,2.78518 -2.25783,5.043 -5.043,5.043 -2.78517,0 -5.043,-2.25782 -5.043,-5.043 0,-2.78517 2.25783,-5.043 5.043,-5.043 2.78517,0 5.043,2.25783 5.043,5.043 z"
         transform="translate(-224.30713,456.77747)" />
      <circle
         id="circle4960-0-5"
         r="5.0430002"
         cy="312.742"
         cx="144"
         sodipodi:cx="144"
         sodipodi:cy="312.742"
         sodipodi:rx="5.0430002"
         sodipodi:ry="5.0430002"
         d="m 149.043,312.742 c 0,2.78518 -2.25783,5.043 -5.043,5.043 -2.78517,0 -5.043,-2.25782 -5.043,-5.043 0,-2.78517 2.25783,-5.043 5.043,-5.043 2.78517,0 5.043,2.25783 5.043,5.043 z"
         transform="translate(-214.20561,360.81297)" />
      <circle
         id="circle4960-2-1"
         r="5.0430002"
         cy="312.742"
         cx="144"
         sodipodi:cx="144"
         sodipodi:cy="312.742"
         sodipodi:rx="5.0430002"
         sodipodi:ry="5.0430002"
         d="m 149.043,312.742 c 0,2.78518 -2.25783,5.043 -5.043,5.043 -2.78517,0 -5.043,-2.25782 -5.043,-5.043 0,-2.78517 2.25783,-5.043 5.043,-5.043 2.78517,0 5.043,2.25783 5.043,5.043 z"
         transform="translate(-174.80965,389.09724)" />
      <circle
         id="circle4960-86-5"
         r="5.0430002"
         cy="312.742"
         cx="144"
         sodipodi:cx="144"
         sodipodi:cy="312.742"
         sodipodi:rx="5.0430002"
         sodipodi:ry="5.0430002"
         d="m 149.043,312.742 c 0,2.78518 -2.25783,5.043 -5.043,5.043 -2.78517,0 -5.043,-2.25782 -5.043,-5.043 0,-2.78517 2.25783,-5.043 5.043,-5.043 2.78517,0 5.043,2.25783 5.043,5.043 z"
         transform="translate(-144.50508,369.90435)" />
      <circle
         id="circle4960-02-58"
         r="5.0430002"
         cy="312.742"
         cx="144"
         sodipodi:cx="144"
         sodipodi:cy="312.742"
         sodipodi:rx="5.0430002"
         sodipodi:ry="5.0430002"
         d="m 149.043,312.742 c 0,2.78518 -2.25783,5.043 -5.043,5.043 -2.78517,0 -5.043,-2.25782 -5.043,-5.043 0,-2.78517 2.25783,-5.043 5.043,-5.043 2.78517,0 5.043,2.25783 5.043,5.043 z"
         transform="translate(-123.29187,208.27994)" />
      <circle
         id="circle4960-4-4"
         r="5.0430002"
         cy="312.742"
         cx="144"
         sodipodi:cx="144"
         sodipodi:cy="312.742"
         sodipodi:rx="5.0430002"
         sodipodi:ry="5.0430002"
         d="m 149.043,312.742 c 0,2.78518 -2.25783,5.043 -5.043,5.043 -2.78517,0 -5.043,-2.25782 -5.043,-5.043 0,-2.78517 2.25783,-5.043 5.043,-5.043 2.78517,0 5.043,2.25783 5.043,5.043 z"
         transform="translate(-183.90103,246.66574)" />
      <circle
         id="circle4960-865-0"
         r="5.0430002"
         cy="312.742"
         cx="144"
         sodipodi:cx="144"
         sodipodi:cy="312.742"
         sodipodi:rx="5.0430002"
         sodipodi:ry="5.0430002"
         d="m 149.043,312.742 c 0,2.78518 -2.25783,5.043 -5.043,5.043 -2.78517,0 -5.043,-2.25782 -5.043,-5.043 0,-2.78517 2.25783,-5.043 5.043,-5.043 2.78517,0 5.043,2.25783 5.043,5.043 z"
         transform="translate(-45.510127,283.03123)" />
    </g>
    <g
       id="g13218"
       transform="matrix(0.46271271,0,0,0.46271271,378.15916,155.88292)">
      <circle
         id="circle4960-02-0-5"
         r="5.0430002"
         cy="312.742"
         cx="144"
         sodipodi:cx="144"
         sodipodi:cy="312.742"
         sodipodi:rx="5.0430002"
         sodipodi:ry="5.0430002"
         d="m 149.043,312.742 c 0,2.78518 -2.25783,5.043 -5.043,5.043 -2.78517,0 -5.043,-2.25782 -5.043,-5.043 0,-2.78517 2.25783,-5.043 5.043,-5.043 2.78517,0 5.043,2.25783 5.043,5.043 z"
         transform="translate(245.41381,102.719)" />
      <circle
         id="circle4960-02-07-4"
         r="5.0430002"
         cy="312.742"
         cx="144"
         sodipodi:cx="144"
         sodipodi:cy="312.742"
         sodipodi:rx="5.0430002"
         sodipodi:ry="5.0430002"
         d="m 149.043,312.742 c 0,2.78518 -2.25783,5.043 -5.043,5.043 -2.78517,0 -5.043,-2.25782 -5.043,-5.043 0,-2.78517 2.25783,-5.043 5.043,-5.043 2.78517,0 5.043,2.25783 5.043,5.043 z"
         transform="translate(161.06607,182.01597)" />
      <circle
         id="circle4960-02-2-7"
         r="5.0430002"
         cy="312.742"
         cx="144"
         sodipodi:cx="144"
         sodipodi:cy="312.742"
         sodipodi:rx="5.0430002"
         sodipodi:ry="5.0430002"
         d="m 149.043,312.742 c 0,2.78518 -2.25783,5.043 -5.043,5.043 -2.78517,0 -5.043,-2.25782 -5.043,-5.043 0,-2.78517 2.25783,-5.043 5.043,-5.043 2.78517,0 5.043,2.25783 5.043,5.043 z"
         transform="translate(295.92144,142.62002)" />
      <circle
         id="circle4960-02-5-2"
         r="5.0430002"
         cy="312.742"
         cx="144"
         sodipodi:cx="144"
         sodipodi:cy="312.742"
         sodipodi:rx="5.0430002"
         sodipodi:ry="5.0430002"
         d="m 149.043,312.742 c 0,2.78518 -2.25783,5.043 -5.043,5.043 -2.78517,0 -5.043,-2.25782 -5.043,-5.043 0,-2.78517 2.25783,-5.043 5.043,-5.043 2.78517,0 5.043,2.25783 5.043,5.043 z"
         transform="translate(242.38335,234.03883)" />
      <circle
         id="circle4960-02-52-1"
         r="5.0430002"
         cy="312.742"
         cx="144"
         sodipodi:cx="144"
         sodipodi:cy="312.742"
         sodipodi:rx="5.0430002"
         sodipodi:ry="5.0430002"
         d="m 149.043,312.742 c 0,2.78518 -2.25783,5.043 -5.043,5.043 -2.78517,0 -5.043,-2.25782 -5.043,-5.043 0,-2.78517 2.25783,-5.043 5.043,-5.043 2.78517,0 5.043,2.25783 5.043,5.043 z"
         transform="translate(200.9671,350.20637)" />
      <circle
         id="circle4960-02-1-4"
         r="5.0430002"
         cy="312.742"
         cx="144"
         sodipodi:cx="144"
         sodipodi:cy="312.742"
         sodipodi:rx="5.0430002"
         sodipodi:ry="5.0430002"
         d="m 149.043,312.742 c 0,2.78518 -2.25783,5.043 -5.043,5.043 -2.78517,0 -5.043,-2.25782 -5.043,-5.043 0,-2.78517 2.25783,-5.043 5.043,-5.043 2.78517,0 5.043,2.25783 5.043,5.043 z"
         transform="translate(304.50773,296.1632)" />
    </g>
  </g>
</svg>
